<svg width="34" height="59" viewBox="0 0 34 59" fill="none" xmlns="http://www.w3.org/2000/svg">
<path d="M13.8636 9.90909H21.6477V29.8523C21.6383 31.7462 21.16 33.4129 20.2131 34.8523C19.2756 36.2822 17.9782 37.3996 16.321 38.2045C14.6733 39 12.7746 39.3977 10.625 39.3977C8.75947 39.3977 7.05492 39.0758 5.51136 38.4318C3.9678 37.7784 2.73674 36.7557 1.81818 35.3636C0.899621 33.9621 0.445076 32.1439 0.454545 29.9091H8.35227C8.38068 30.6383 8.50379 31.2538 8.72159 31.7557C8.94886 32.2576 9.26136 32.6364 9.65909 32.892C10.0663 33.1383 10.5587 33.2614 11.1364 33.2614C11.7235 33.2614 12.2159 33.1335 12.6136 32.8778C13.0208 32.6222 13.3286 32.2434 13.5369 31.7415C13.7453 31.2301 13.8542 30.6004 13.8636 29.8523V9.90909Z" fill="white"/>
<path d="M28.3409 20.9091H29.25V42.2727C29.2405 44.2424 28.9044 45.8239 28.2415 47.017C27.5881 48.2008 26.7263 49.0625 25.6562 49.6023C24.5956 50.1326 23.4451 50.3977 22.2045 50.3977C20.8693 50.3977 19.6667 50.142 18.5966 49.6307C17.536 49.1193 16.6932 48.4233 16.0682 47.5426C15.4527 46.6619 15.1496 45.6629 15.1591 44.5455H16.0682C16.0587 45.4924 16.3239 46.34 16.8636 47.0881C17.4034 47.8267 18.1373 48.4138 19.0653 48.8494C20.0028 49.2756 21.0492 49.4886 22.2045 49.4886C23.2652 49.4886 24.2595 49.2614 25.1875 48.8068C26.125 48.3523 26.8826 47.5994 27.4602 46.5483C28.0379 45.4972 28.3314 44.072 28.3409 42.2727V20.9091Z" fill="white"/>
</svg>
